<svg version="1.2" xmlns="http://www.w3.org/2000/svg" viewBox="0 0 546 546" width="546" height="546"><style>.a{fill:#011600}.b{fill:#76ba1b}.c{fill:#bfbebe}.d{fill:#4c9a2a}.e{fill:#a4de02}.f{fill:#48fb00}</style><path class="a" d="m545.5 545.6h-545.4v-545.3h545.4z"/><path fill-rule="evenodd" class="b" d="m102.5 347.4h9.2c7.2 0 13.1 5.8 13.1 12.9v8.1c0 7.1-5.9 12.9-13.1 12.9h-15.7v-27.9c0-3.3 2.9-6 6.5-6zm15.4 12.9c0-3.8-2.7-7-6.2-7h-8.8v22.1h8.8c3.5 0 6.2-3.1 6.2-7z"/><path class="b" d="m137.3 347.4v33.9h-6.8v-33.9z"/><path class="b" d="m159.9 347.4c3.6 0 8.7 1.4 11.1 3.7l-5.9 4.6c-1.2-1.5-3.3-2.4-5.2-2.4h-4.5c-3.4 0-6.2 3.2-6.2 7v8.1c0 3.9 2.8 7 6.3 7h8.8v-11h6.8v10.9c0 3.3-2.8 6-6.4 6h-9.2c-7.2 0-13.1-5.8-13.1-12.9v-8.1c0-7.1 5.8-12.9 13-12.9z"/><path class="b" d="m184.2 347.4v33.9h-6.8v-33.9z"/><path class="b" d="m195.8 353.3h-6.7v-5.9h10.4zm2.4 28v-27.9c0-3.3 2.8-6 6.4-6h10.1v5.9h-9.7v28z"/><path class="b" d="m221.7 376.8l3.6-5.9h9.1l-5.7-16.6-9.5 27h-7.3l9.9-28.4c1.2-3.3 3.3-5.9 6.9-5.9 3.5 0 5.6 2.6 6.8 5.9l9.9 28.4h-7.3l-1.6-4.5z"/><path class="b" d="m272.2 375.4l3.2 5.9h-19.7c-3.5 0-6.4-2.7-6.4-6v-27.9h6.8v28z"/><path fill-rule="evenodd" class="b" d="m320.2 371.8c0 4.7-4.3 9.5-12.8 9.5h-15.7v-27.9c0-3.3 2.9-6 6.4-6h9.3c7.3 0 11 4.7 11 9.4 0 2.6-1.1 5.2-3.4 7.1 3.5 1.8 5.2 4.8 5.2 7.9zm-12.8-10.6c2.9 0 4.3-2 4.3-3.9 0-2-1.4-4-4.3-4h-8.9v22.1h8.9c4.1 0 6.2-2.1 6.2-4.1 0-2.1-2.1-4.2-6.2-4.2h-8.4l3.7-5.9z"/><path class="b" d="m348.3 375.4l3.2 5.9h-19.8c-3.5 0-6.4-2.7-6.4-6v-27.9h6.8v28z"/><path fill-rule="evenodd" class="b" d="m365.7 381.7c-7.2 0-13.1-5.7-13.1-12.8v-9.1c0-7.1 5.9-12.8 13.1-12.8h4.6c7.2 0 13.1 5.7 13.1 12.8v9.1c0 7.1-5.9 12.8-13.1 12.8zm4.6-5.8c3.4 0 6.2-3.2 6.2-7v-9.1c0-3.8-2.8-7-6.2-7h-4.6c-3.5 0-6.2 3.2-6.2 7v9.1c0 3.8 2.7 7 6.2 7z"/><path class="b" d="m394.2 368.4c0 3.9 2.8 7 6.3 7h4.5c1.9 0 4-0.9 5.2-2.4l5.9 4.6c-2.4 2.3-7.5 3.7-11.1 3.7h-4.5c-7.2 0-13.1-5.8-13.1-12.9v-8.1c0-7.1 5.9-12.9 13.1-12.9h4.5c3.6 0 8.7 1.4 11.1 3.7l-5.9 4.6c-1.2-1.5-3.3-2.4-5.2-2.4h-4.5c-3.5 0-6.3 3.2-6.3 7z"/><path class="b" d="m428.3 347.4v14.2h4.4l8.6-14.2h7.8l-10.8 17 11.3 16.9h-7.8l-8.9-13.8h-4.6v13.8h-6.9v-33.9z"/><path class="c" d="m191.4 407.5h9l1.6 3h-10.8c-1.8 0-3.3-1.4-3.3-3.1v-11.2c0-1.7 1.5-3.1 3.3-3.1h10.8l-1.6 3h-9v4.3h8.3v3h-8.3z"/><path class="c" d="m221.3 393.1h4l-5.5 8.7 5.7 8.7h-3.9l-4.6-7.2-4.7 7.2h-3.9l5.7-8.7-5.5-8.7h4l4.4 7.2z"/><path class="c" d="m235.2 403.9c0 2 1.5 3.6 3.2 3.6h2.4c0.9 0 2-0.5 2.6-1.2l3 2.3c-1.2 1.2-3.8 1.9-5.6 1.9h-2.4c-3.7 0-6.7-3-6.7-6.6v-4.2c0-3.6 3-6.6 6.7-6.6h2.4c1.8 0 4.4 0.8 5.6 1.9l-3 2.4c-0.6-0.8-1.7-1.3-2.6-1.3h-2.4c-1.7 0-3.2 1.7-3.2 3.6z"/><path class="c" d="m258.5 400.4h6.4v-7.3h3.5v17.4h-3.5v-7.1h-7.6v7.1h-3.5v-17.4h3.5v9.2z"/><path class="c" d="m279.9 408.2l1.9-3h4.7l-3-8.6-4.9 13.9h-3.7l5.1-14.5c0.6-1.8 1.7-3.1 3.5-3.1 1.8 0 2.9 1.3 3.5 3.1l5.1 14.5h-3.8l-0.8-2.3z"/><path class="c" d="m305.7 396.1l4.9 11.4v-14.4h3.5v14.4c0 1.7-1.7 3.1-3.5 3.1-1.9 0-2.8-1.4-3.5-3.1l-4.9-11.4v14.4h-3.5v-14.4c0-1.7 1.7-3.1 3.5-3.1 1.9 0 2.8 1.4 3.5 3.1z"/><path class="c" d="m330.3 393.1c1.8 0 4.4 0.8 5.7 1.9l-3.1 2.4c-0.6-0.8-1.6-1.3-2.6-1.3h-2.3c-1.8 0-3.2 1.7-3.2 3.6v4.2c0 2 1.4 3.6 3.2 3.6h4.5v-5.7h3.5v5.6c0 1.7-1.4 3.1-3.3 3.1h-4.7c-3.7 0-6.7-3-6.7-6.6v-4.2c0-3.6 3-6.6 6.7-6.6z"/><path class="c" d="m347.1 407.5h9l1.6 3h-10.8c-1.8 0-3.3-1.4-3.3-3.1v-11.2c0-1.7 1.5-3.1 3.3-3.1h10.8l-1.6 3h-9v4.3h8.3v3h-8.3z"/><path class="c" d="m182.1 403.1h-86.1v-2.6h86.1z"/><path class="c" d="m449.6 403.1h-86.1v-2.6h86.1z"/><path class="d" d="m272.8 178.8l-47.3 28.1-19.4-11.1 66.7-38.5 27.7 16v21.5z"/><path class="d" d="m272.8 201.5l27.7 16.8-27.7 15.9-27.7-15.9z"/><path class="d" d="m339.5 195.8l-19.4 11.1v-22.3l12 6.9z"/><path fill-rule="evenodd" class="e" d="m339.5 195.8v76.9l-46.6 26.9-12.7 7.4-7.4 4.2v-23.2 0.1l7.4-4.3 39.9-23v-53.9zm-39 22.5v31.2l-20.3 11.8-7.4 4.2v-31.2z"/><path fill-rule="evenodd" class="b" d="m272.8 288v23.2l-7.3-4.2-59.4-34.3v-76.9l18.7 10.7 0.7 0.4v53.9l40 23zm0-53.8v31.2l-7.4-4.2-20.3-11.8v-31.2z"/><path class="f" d="m349.9 213.1h22.7v8.1h-22.7z"/><path class="f" d="m349.9 196.1h22.7v8h-22.7z"/><path class="f" d="m349.9 230.2h22.7v8.1h-22.7z"/><path class="f" d="m349.9 247.3h22.7v8h-22.7z"/><path class="f" d="m349.9 264.4h22.7v8h-22.7z"/><path class="c" d="m195.7 238.3h-42.9c-1.1 1.4-2.9 2.3-4.9 2.3-3.5 0-6.3-2.8-6.3-6.4 0-3.5 2.8-6.3 6.3-6.3 2 0 3.8 0.9 4.9 2.3h42.9z"/><path class="c" d="m195.7 255.3h-30.3c-1.2 1.5-2.9 2.4-4.9 2.4-3.5 0-6.4-2.9-6.4-6.4 0-3.5 2.9-6.3 6.4-6.3 2 0 3.7 0.9 4.9 2.3h30.3z"/><path class="c" d="m166.7 200.1c0-3.5 2.8-6.4 6.3-6.4 2 0 3.8 0.9 4.9 2.4h9.2v-11.3l85.7-49.5 85.7 49.5v11.3h9.2c1.1-1.5 2.9-2.4 4.9-2.4 3.5 0 6.3 2.9 6.3 6.4 0 3.5-2.8 6.4-6.3 6.4-2 0-3.8-1-4.9-2.4h-9.2-8.6v-14.4l-77.1-44.5-77.1 44.5v6.4 8h-8.6-9.2c-1.1 1.4-2.9 2.4-4.9 2.4-3.5 0-6.3-2.9-6.3-6.4z"/><path class="c" d="m154.1 217.2c0-3.5 2.9-6.4 6.4-6.4 2 0 3.7 0.9 4.9 2.3h30.3v8.1h-30.3c-1.2 1.4-2.9 2.3-4.9 2.3-3.5 0-6.4-2.8-6.4-6.3z"/><path class="c" d="m349.9 213.1h30.3c1.2-1.4 2.9-2.3 4.9-2.3 3.5 0 6.4 2.9 6.4 6.4 0 3.5-2.9 6.3-6.4 6.3-2 0-3.7-0.9-4.9-2.3h-30.3z"/><path class="c" d="m404 234.2c0 3.6-2.8 6.4-6.3 6.4-2 0-3.8-0.9-5-2.3h-42.8v-8.1h42.8c1.2-1.4 3-2.3 5-2.3 3.5 0 6.3 2.8 6.3 6.3z"/><path class="c" d="m391.5 251.3c0 3.5-2.9 6.4-6.4 6.4-2 0-3.7-0.9-4.9-2.4h-30.3v-8h30.3c1.2-1.4 2.9-2.3 4.9-2.3 3.5 0 6.4 2.8 6.4 6.3z"/><path class="c" d="m378.9 268.4c0 3.5-2.8 6.4-6.3 6.4-2 0-3.8-1-4.9-2.4h-9.2v11.3l-85.7 49.5-85.7-49.5v-11.3h-9.2c-1.1 1.4-2.9 2.4-4.9 2.4-3.5 0-6.3-2.9-6.3-6.4 0-3.5 2.8-6.4 6.3-6.4 2 0 3.8 0.9 4.9 2.4h9.2 8.6v8 6.4l77.1 44.5 77.1-44.5v-14.4h8.6 9.2c1.1-1.5 2.9-2.4 4.9-2.4 3.5 0 6.3 2.9 6.3 6.4z"/></svg>